# Blender v3.0.0 OBJ File: 'level1.blend'
# www.blender.org
mtllib box6.mtl
o Box7.064_Cylinder.464
v -4.540517 1.000000 12.836759
v -5.785784 1.000000 12.325720
v -3.846010 1.000000 10.860796
v -4.892035 1.000000 10.431522
v -5.785784 0.000000 12.325720
v -4.540517 0.000000 12.836759
v -4.892035 0.000000 10.431522
v -3.846010 0.000000 10.860796
vt 0.796875 1.000000
vt 0.796875 1.000000
vt 0.812500 1.000000
vt 0.812500 1.000000
vt 0.796875 1.000000
vt 0.812500 1.000000
vt 0.812500 1.000000
vt 0.796875 1.000000
vn 0.0000 -1.0000 0.0000
vn 0.0000 1.0000 0.0000
vn -0.3797 0.0000 0.9251
vn -0.9434 0.0000 -0.3316
vn 0.9044 0.0000 0.4267
vn 0.3797 0.0000 -0.9251
usemtl None
s off
f 2/1/1 4/2/1 3/3/1 1/4/1
f 5/5/2 6/6/2 8/7/2 7/8/2
f 3/3/3 4/2/3 7/8/3 8/7/3
f 1/4/4 3/3/4 8/7/4 6/6/4
f 4/2/5 2/1/5 5/5/5 7/8/5
f 1/4/6 6/6/6 5/5/6 2/1/6
