# Blender v3.0.0 OBJ File: 'level1.blend'
# www.blender.org
mtllib box7.mtl
o Box7.065_Cylinder.465
v -5.403214 1.000000 15.275743
v -6.885082 1.000000 14.667605
v -4.576752 1.000000 12.924346
v -5.821522 1.000000 12.413511
v -6.885082 0.000000 14.667605
v -5.403214 0.000000 15.275743
v -5.821522 0.000000 12.413511
v -4.576752 0.000000 12.924346
vt 0.796875 1.000000
vt 0.796875 1.000000
vt 0.812500 1.000000
vt 0.812500 1.000000
vt 0.796875 1.000000
vt 0.812500 1.000000
vt 0.812500 1.000000
vt 0.796875 1.000000
vn 0.0000 -1.0000 0.0000
vn 0.0000 1.0000 0.0000
vn -0.3797 0.0000 0.9251
vn -0.9434 0.0000 -0.3316
vn 0.9044 0.0000 0.4267
vn 0.3797 0.0000 -0.9251
usemtl None
s off
f 2/1/1 4/2/1 3/3/1 1/4/1
f 5/5/2 6/6/2 8/7/2 7/8/2
f 3/3/3 4/2/3 7/8/3 8/7/3
f 1/4/4 3/3/4 8/7/4 6/6/4
f 4/2/5 2/1/5 5/5/5 7/8/5
f 1/4/6 6/6/6 5/5/6 2/1/6
