# Blender v3.0.0 OBJ File: 'level1.blend'
# www.blender.org
mtllib box9.mtl
o Box7.067_Cylinder.467
v -7.651493 1.000000 21.631983
v -9.749967 1.000000 20.770800
v -6.481139 1.000000 18.302170
v -8.243857 1.000000 17.578775
v -9.749967 0.000000 20.770800
v -7.651493 0.000000 21.631983
v -8.243857 0.000000 17.578775
v -6.481139 0.000000 18.302170
vt 0.796875 1.000000
vt 0.796875 1.000000
vt 0.812500 1.000000
vt 0.812500 1.000000
vt 0.796875 1.000000
vt 0.812500 1.000000
vt 0.812500 1.000000
vt 0.796875 1.000000
vn 0.0000 -1.0000 0.0000
vn 0.0000 1.0000 0.0000
vn -0.3797 0.0000 0.9251
vn -0.9434 0.0000 -0.3316
vn 0.9044 0.0000 0.4267
vn 0.3797 0.0000 -0.9251
usemtl None
s off
f 2/1/1 4/2/1 3/3/1 1/4/1
f 5/5/2 6/6/2 8/7/2 7/8/2
f 3/3/3 4/2/3 7/8/3 8/7/3
f 1/4/4 3/3/4 8/7/4 6/6/4
f 4/2/5 2/1/5 5/5/5 7/8/5
f 1/4/6 6/6/6 5/5/6 2/1/6
