# Blender v3.0.0 OBJ File: ''
# www.blender.org
mtllib box4.mtl
o Cube.002
v -4.145160 -0.000001 8.841376
v -4.145160 0.999999 8.841376
v -3.483080 0.999999 7.429070
v -3.483080 -0.000001 7.429070
v -2.740053 0.999999 7.733722
v -2.740053 -0.000001 7.733722
v -3.260750 0.999999 9.205100
v -3.260750 -0.000001 9.205100
vt 0.375000 0.000000
vt 0.625000 0.000000
vt 0.625000 0.250000
vt 0.375000 0.250000
vt 0.625000 0.500000
vt 0.375000 0.500000
vt 0.625000 0.750000
vt 0.375000 0.750000
vt 0.625000 1.000000
vt 0.375000 1.000000
vt 0.125000 0.500000
vt 0.125000 0.750000
vt 0.875000 0.500000
vt 0.875000 0.750000
vn -0.9054 0.0000 -0.4245
vn 0.3794 0.0000 -0.9252
vn 0.9427 0.0000 0.3336
vn -0.3804 0.0000 0.9248
vn 0.0000 -1.0000 -0.0000
vn 0.0000 1.0000 0.0000
usemtl None.001
s 1
f 1/1/1 2/2/1 3/3/1 4/4/1
f 4/4/2 3/3/2 5/5/2 6/6/2
f 6/6/3 5/5/3 7/7/3 8/8/3
f 8/8/4 7/7/4 2/9/4 1/10/4
f 4/11/5 6/6/5 8/8/5 1/12/5
f 5/5/6 3/13/6 2/14/6 7/7/6
