# Blender v3.0.0 OBJ File: 'map2.blend'
# www.blender.org
mtllib inner_ring.mtl
o Cylinder
v 0.000000 -1.000000 -4.700000
v 0.000000 1.000000 -4.700000
v 0.916924 -1.000000 -4.609691
v 0.916924 1.000000 -4.609691
v 1.798612 -1.000000 -4.342234
v 1.798612 1.000000 -4.342234
v 2.611180 -1.000000 -3.907907
v 2.611180 1.000000 -3.907907
v 3.323402 -1.000000 -3.323402
v 3.323402 1.000000 -3.323402
v 3.907907 -1.000000 -2.611180
v 3.907907 1.000000 -2.611180
v 4.342234 -1.000000 -1.798612
v 4.342234 1.000000 -1.798612
v 4.609691 -1.000000 -0.916925
v 4.609691 1.000000 -0.916925
v 4.700000 -1.000000 0.000000
v 4.700000 1.000000 0.000000
v 4.609691 -1.000000 0.916924
v 4.609691 1.000000 0.916924
v 4.342234 -1.000000 1.798612
v 4.342234 1.000000 1.798612
v 3.907907 -1.000000 2.611180
v 3.907907 1.000000 2.611180
v 3.323402 -1.000000 3.323402
v 3.323402 1.000000 3.323402
v 2.611180 -1.000000 3.907907
v 2.611180 1.000000 3.907907
v 1.798612 -1.000000 4.342234
v 1.798612 1.000000 4.342234
v 0.916924 -1.000000 4.609691
v 0.916924 1.000000 4.609691
v -0.000000 -1.000000 4.700000
v -0.000000 1.000000 4.700000
v -0.916924 -1.000000 4.609691
v -0.916924 1.000000 4.609691
v -1.798612 -1.000000 4.342234
v -1.798612 1.000000 4.342234
v -2.611180 -1.000000 3.907907
v -2.611180 1.000000 3.907907
v -3.323401 -1.000000 3.323402
v -3.323401 1.000000 3.323402
v -3.907906 -1.000000 2.611181
v -3.907906 1.000000 2.611181
v -4.342234 -1.000000 1.798613
v -4.342234 1.000000 1.798613
v -4.609691 -1.000000 0.916925
v -4.609691 1.000000 0.916925
v -4.700000 -1.000000 -0.000000
v -4.700000 1.000000 -0.000000
v -4.609691 -1.000000 -0.916925
v -4.609691 1.000000 -0.916925
v -4.342233 -1.000000 -1.798613
v -4.342233 1.000000 -1.798613
v -3.907907 -1.000000 -2.611179
v -3.907907 1.000000 -2.611179
v -3.323402 -1.000000 -3.323401
v -3.323402 1.000000 -3.323401
v -2.611180 -1.000000 -3.907907
v -2.611180 1.000000 -3.907907
v -1.798612 -1.000000 -4.342234
v -1.798612 1.000000 -4.342234
v -0.916924 -1.000000 -4.609691
v -0.916924 1.000000 -4.609691
v 0.849720 1.000000 -4.271832
v -0.000000 1.000000 -4.355523
v 1.666786 1.000000 -4.023978
v 2.419799 1.000000 -3.621485
v 3.079819 1.000000 -3.079819
v 3.621485 1.000000 -2.419799
v 4.023978 1.000000 -1.666786
v 4.271832 1.000000 -0.849720
v 4.355523 1.000000 0.000000
v 4.271832 1.000000 0.849720
v 4.023978 1.000000 1.666786
v 3.621485 1.000000 2.419798
v 3.079819 1.000000 3.079819
v 2.419798 1.000000 3.621485
v 1.666787 1.000000 4.023978
v 0.849720 1.000000 4.271832
v -0.000000 1.000000 4.355523
v -0.849720 1.000000 4.271832
v -1.666786 1.000000 4.023978
v -2.419799 1.000000 3.621484
v -3.079819 1.000000 3.079820
v -3.621484 1.000000 2.419800
v -4.023978 1.000000 1.666787
v -4.271832 1.000000 0.849721
v -4.355523 1.000000 -0.000000
v -4.271832 1.000000 -0.849721
v -4.023978 1.000000 -1.666787
v -3.621485 1.000000 -2.419798
v -3.079820 1.000000 -3.079819
v -2.419799 1.000000 -3.621485
v -1.666786 1.000000 -4.023978
v -0.849720 1.000000 -4.271832
v 0.668866 0.906632 -3.362617
v 0.000000 0.906632 -3.428494
v 1.312028 0.906632 -3.167516
v 1.904770 0.906632 -2.850689
v 2.424311 0.906632 -2.424311
v 2.850689 0.906632 -1.904769
v 3.167516 0.906632 -1.312028
v 3.362617 0.906632 -0.668866
v 3.428494 0.906632 0.000000
v 3.362617 0.906632 0.668866
v 3.167516 0.906632 1.312028
v 2.850689 0.906632 1.904769
v 2.424311 0.906632 2.424311
v 1.904769 0.906632 2.850689
v 1.312028 0.906632 3.167516
v 0.668866 0.906632 3.362617
v -0.000000 0.906632 3.428494
v -0.668866 0.906632 3.362617
v -1.312028 0.906632 3.167516
v -1.904769 0.906632 2.850689
v -2.424311 0.906632 2.424312
v -2.850688 0.906632 1.904770
v -3.167516 0.906632 1.312029
v -3.362617 0.906632 0.668866
v -3.428494 0.906632 -0.000000
v -3.362617 0.906632 -0.668866
v -3.167515 0.906632 -1.312029
v -2.850689 0.906632 -1.904769
v -2.424312 0.906632 -2.424311
v -1.904769 0.906632 -2.850689
v -1.312028 0.906632 -3.167516
v -0.668866 0.906632 -3.362617
v 0.110318 0.906632 -0.554606
v -0.000000 0.906632 -0.565471
v 0.216396 0.906632 -0.522427
v 0.314159 0.906632 -0.470172
v 0.399849 0.906632 -0.399849
v 0.470172 0.906632 -0.314159
v 0.522427 0.906632 -0.216396
v 0.554606 0.906632 -0.110318
v 0.565471 0.906632 0.000000
v 0.554606 0.906632 0.110318
v 0.522427 0.906632 0.216396
v 0.470172 0.906632 0.314159
v 0.399849 0.906632 0.399849
v 0.314159 0.906632 0.470172
v 0.216397 0.906632 0.522427
v 0.110318 0.906632 0.554606
v -0.000000 0.906632 0.565471
v -0.110318 0.906632 0.554606
v -0.216396 0.906632 0.522427
v -0.314159 0.906632 0.470172
v -0.399849 0.906632 0.399849
v -0.470172 0.906632 0.314159
v -0.522427 0.906632 0.216397
v -0.554606 0.906632 0.110318
v -0.565471 0.906632 -0.000000
v -0.554606 0.906632 -0.110318
v -0.522427 0.906632 -0.216397
v -0.470172 0.906632 -0.314159
v -0.399849 0.906632 -0.399849
v -0.314159 0.906632 -0.470172
v -0.216396 0.906632 -0.522427
v -0.110318 0.906632 -0.554606
v 0.278268 -0.591623 -1.398948
v -0.000000 -0.591623 -1.426355
v 0.545842 -0.591623 -1.317780
v 0.792440 -0.591623 -1.185971
v 1.008585 -0.591623 -1.008585
v 1.185971 -0.591623 -0.792440
v 1.317780 -0.591623 -0.545842
v 1.398948 -0.591623 -0.278268
v 1.426355 -0.591623 0.000000
v 1.398948 -0.591623 0.278268
v 1.317780 -0.591623 0.545842
v 1.185971 -0.591623 0.792440
v 1.008585 -0.591623 1.008585
v 0.792440 -0.591623 1.185971
v 0.545842 -0.591623 1.317780
v 0.278268 -0.591623 1.398948
v -0.000000 -0.591623 1.426355
v -0.278268 -0.591623 1.398948
v -0.545842 -0.591623 1.317780
v -0.792440 -0.591623 1.185971
v -1.008585 -0.591623 1.008585
v -1.185970 -0.591623 0.792441
v -1.317780 -0.591623 0.545843
v -1.398948 -0.591623 0.278268
v -1.426355 -0.591623 -0.000000
v -1.398948 -0.591623 -0.278268
v -1.317780 -0.591623 -0.545843
v -1.185971 -0.591623 -0.792440
v -1.008585 -0.591623 -1.008585
v -0.792440 -0.591623 -1.185971
v -0.545842 -0.591623 -1.317780
v -0.278268 -0.591623 -1.398948
v -0.000000 -1.000000 -1.426782
v 0.278351 -1.000000 -1.399367
v 0.546006 -1.000000 -1.318175
v 0.792678 -1.000000 -1.186326
v 1.008887 -1.000000 -1.008887
v 1.186326 -1.000000 -0.792678
v 1.318175 -1.000000 -0.546006
v 1.399367 -1.000000 -0.278351
v 1.426782 -1.000000 0.000000
v 1.399367 -1.000000 0.278351
v 1.318175 -1.000000 0.546006
v 1.186326 -1.000000 0.792678
v 1.008887 -1.000000 1.008888
v 0.792678 -1.000000 1.186326
v 0.546006 -1.000000 1.318175
v 0.278351 -1.000000 1.399367
v -0.000000 -1.000000 1.426782
v -0.278351 -1.000000 1.399367
v -0.546006 -1.000000 1.318175
v -0.792678 -1.000000 1.186326
v -1.008888 -1.000000 1.008888
v -1.186326 -1.000000 0.792678
v -1.318175 -1.000000 0.546006
v -1.399367 -1.000000 0.278352
v -1.426782 -1.000000 0.000000
v -1.399367 -1.000000 -0.278351
v -1.318175 -1.000000 -0.546006
v -1.186327 -1.000000 -0.792677
v -1.008888 -1.000000 -1.008887
v -0.792678 -1.000000 -1.186326
v -0.546006 -1.000000 -1.318175
v -0.278351 -1.000000 -1.399367
vt 1.000000 0.500000
vt 1.000000 1.000000
vt 0.968750 1.000000
vt 0.968750 0.500000
vt 0.937500 1.000000
vt 0.937500 0.500000
vt 0.906250 1.000000
vt 0.906250 0.500000
vt 0.875000 1.000000
vt 0.875000 0.500000
vt 0.843750 1.000000
vt 0.843750 0.500000
vt 0.812500 1.000000
vt 0.812500 0.500000
vt 0.781250 1.000000
vt 0.781250 0.500000
vt 0.750000 1.000000
vt 0.750000 0.500000
vt 0.718750 1.000000
vt 0.718750 0.500000
vt 0.687500 1.000000
vt 0.687500 0.500000
vt 0.656250 1.000000
vt 0.656250 0.500000
vt 0.625000 1.000000
vt 0.625000 0.500000
vt 0.593750 1.000000
vt 0.593750 0.500000
vt 0.562500 1.000000
vt 0.562500 0.500000
vt 0.531250 1.000000
vt 0.531250 0.500000
vt 0.500000 1.000000
vt 0.500000 0.500000
vt 0.468750 1.000000
vt 0.468750 0.500000
vt 0.437500 1.000000
vt 0.437500 0.500000
vt 0.406250 1.000000
vt 0.406250 0.500000
vt 0.375000 1.000000
vt 0.375000 0.500000
vt 0.343750 1.000000
vt 0.343750 0.500000
vt 0.312500 1.000000
vt 0.312500 0.500000
vt 0.281250 1.000000
vt 0.281250 0.500000
vt 0.250000 1.000000
vt 0.250000 0.500000
vt 0.218750 1.000000
vt 0.218750 0.500000
vt 0.187500 1.000000
vt 0.187500 0.500000
vt 0.156250 1.000000
vt 0.156250 0.500000
vt 0.125000 1.000000
vt 0.125000 0.500000
vt 0.093750 1.000000
vt 0.093750 0.500000
vt 0.062500 1.000000
vt 0.062500 0.500000
vt 0.750000 1.000000
vt 0.718750 1.000000
vt 0.031250 1.000000
vt 0.031250 0.500000
vt 0.000000 1.000000
vt 0.000000 0.500000
vt 0.093750 0.500000
vt 0.125000 0.500000
vt 0.656250 1.000000
vt 0.687500 1.000000
vt 0.687500 1.000000
vt 0.656250 1.000000
vt 0.468750 1.000000
vt 0.437500 1.000000
vt 0.187500 1.000000
vt 0.156250 1.000000
vt 0.875000 1.000000
vt 0.843750 1.000000
vt 0.593750 1.000000
vt 0.562500 1.000000
vt 0.312500 1.000000
vt 0.281250 1.000000
vt 1.000000 1.000000
vt 0.968750 1.000000
vt 0.031250 1.000000
vt 0.000000 1.000000
vt 0.406250 1.000000
vt 0.125000 1.000000
vt 0.812500 1.000000
vt 0.531250 1.000000
vt 0.250000 1.000000
vt 0.937500 1.000000
vt 0.375000 1.000000
vt 0.093750 1.000000
vt 0.781250 1.000000
vt 0.500000 1.000000
vt 0.218750 1.000000
vt 0.906250 1.000000
vt 0.625000 1.000000
vt 0.343750 1.000000
vt 0.062500 1.000000
vt 0.156250 1.000000
vt 0.187500 1.000000
vt 0.187500 1.000000
vt 0.156250 1.000000
vt 0.250000 1.000000
vt 0.218750 1.000000
vt 0.625000 1.000000
vt 0.593750 1.000000
vt 0.562500 1.000000
vt 1.000000 1.000000
vt 0.968750 1.000000
vt 0.125000 1.000000
vt 0.531250 1.000000
vt 0.937500 1.000000
vt 0.093750 1.000000
vt 0.500000 1.000000
vt 0.906250 1.000000
vt 0.062500 1.000000
vt 0.468750 1.000000
vt 0.875000 1.000000
vt 0.031250 1.000000
vt 0.437500 1.000000
vt 0.843750 1.000000
vt 0.000000 1.000000
vt 0.406250 1.000000
vt 0.812500 1.000000
vt 0.375000 1.000000
vt 0.781250 1.000000
vt 0.343750 1.000000
vt 0.750000 1.000000
vt 0.312500 1.000000
vt 0.718750 1.000000
vt 0.281250 1.000000
vt 0.406250 1.000000
vt 0.437500 1.000000
vt 0.437500 1.000000
vt 0.406250 1.000000
vt 0.593750 1.000000
vt 0.562500 1.000000
vt 1.000000 1.000000
vt 0.968750 1.000000
vt 0.125000 1.000000
vt 0.531250 1.000000
vt 0.937500 1.000000
vt 0.093750 1.000000
vt 0.500000 1.000000
vt 0.906250 1.000000
vt 0.062500 1.000000
vt 0.468750 1.000000
vt 0.875000 1.000000
vt 0.031250 1.000000
vt 0.843750 1.000000
vt 0.000000 1.000000
vt 0.812500 1.000000
vt 0.375000 1.000000
vt 0.781250 1.000000
vt 0.343750 1.000000
vt 0.750000 1.000000
vt 0.312500 1.000000
vt 0.718750 1.000000
vt 0.281250 1.000000
vt 0.687500 1.000000
vt 0.250000 1.000000
vt 0.656250 1.000000
vt 0.218750 1.000000
vt 0.625000 1.000000
vt 0.843750 1.000000
vt 0.812500 1.000000
vt 0.375000 1.000000
vt 0.781250 1.000000
vt 0.343750 1.000000
vt 0.750000 1.000000
vt 0.312500 1.000000
vt 0.718750 1.000000
vt 0.281250 1.000000
vt 0.687500 1.000000
vt 0.250000 1.000000
vt 0.656250 1.000000
vt 0.218750 1.000000
vt 0.625000 1.000000
vt 0.187500 1.000000
vt 0.593750 1.000000
vt 0.156250 1.000000
vt 0.562500 1.000000
vt 1.000000 1.000000
vt 0.968750 1.000000
vt 0.125000 1.000000
vt 0.531250 1.000000
vt 0.937500 1.000000
vt 0.093750 1.000000
vt 0.500000 1.000000
vt 0.906250 1.000000
vt 0.062500 1.000000
vt 0.468750 1.000000
vt 0.875000 1.000000
vt 0.031250 1.000000
vt 0.000000 1.000000
vt 0.781250 0.500000
vt 0.812500 0.500000
vt 0.500000 0.500000
vt 0.531250 0.500000
vt 0.218750 0.500000
vt 0.250000 0.500000
vt 0.906250 0.500000
vt 0.937500 0.500000
vt 0.625000 0.500000
vt 0.656250 0.500000
vt 0.343750 0.500000
vt 0.375000 0.500000
vt 0.062500 0.500000
vt 0.750000 0.500000
vt 0.468750 0.500000
vt 0.187500 0.500000
vt 0.875000 0.500000
vt 0.593750 0.500000
vt 0.312500 0.500000
vt 0.031250 0.500000
vt 0.718750 0.500000
vt 0.437500 0.500000
vt 0.156250 0.500000
vt 0.843750 0.500000
vt 0.562500 0.500000
vt 0.281250 0.500000
vt 0.968750 0.500000
vt 1.000000 0.500000
vt 0.000000 0.500000
vt 0.687500 0.500000
vt 0.406250 0.500000
vn 0.0980 0.0000 -0.9952
vn 0.2903 0.0000 -0.9569
vn 0.4714 0.0000 -0.8819
vn 0.6344 0.0000 -0.7730
vn 0.7730 0.0000 -0.6344
vn 0.8819 0.0000 -0.4714
vn 0.9569 0.0000 -0.2903
vn 0.9952 0.0000 -0.0980
vn 0.9952 0.0000 0.0980
vn 0.9569 0.0000 0.2903
vn 0.8819 0.0000 0.4714
vn 0.7730 0.0000 0.6344
vn 0.6344 0.0000 0.7730
vn 0.4714 0.0000 0.8819
vn 0.2903 0.0000 0.9569
vn 0.0980 0.0000 0.9952
vn -0.0980 0.0000 0.9952
vn -0.2903 0.0000 0.9569
vn -0.4714 0.0000 0.8819
vn -0.6344 0.0000 0.7730
vn -0.7730 0.0000 0.6344
vn -0.8819 0.0000 0.4714
vn -0.9569 0.0000 0.2903
vn -0.9952 0.0000 0.0980
vn -0.9952 0.0000 -0.0980
vn -0.9569 0.0000 -0.2903
vn -0.8819 0.0000 -0.4714
vn -0.7730 0.0000 -0.6344
vn -0.6344 0.0000 -0.7730
vn -0.4714 0.0000 -0.8819
vn 0.0000 1.0000 0.0000
vn -0.2903 0.0000 -0.9569
vn -0.0980 0.0000 -0.9952
vn 0.0000 -1.0000 -0.0000
vn -0.0888 0.9949 -0.0475
vn 0.1002 0.9949 0.0099
vn -0.0778 0.9949 -0.0639
vn 0.0964 0.9949 0.0292
vn -0.0639 0.9949 -0.0778
vn 0.0888 0.9949 0.0475
vn -0.0475 0.9949 -0.0888
vn -0.0099 0.9949 0.1002
vn 0.0778 0.9949 0.0639
vn -0.0292 0.9949 -0.0964
vn -0.0292 0.9949 0.0964
vn 0.0639 0.9949 0.0778
vn -0.0099 0.9949 -0.1002
vn -0.0475 0.9949 0.0888
vn 0.0475 0.9949 0.0888
vn 0.0099 0.9949 -0.1002
vn -0.0639 0.9949 0.0778
vn 0.0292 0.9949 0.0964
vn 0.0292 0.9949 -0.0964
vn -0.0778 0.9949 0.0639
vn 0.0099 0.9949 0.1002
vn 0.0475 0.9949 -0.0888
vn -0.0888 0.9949 0.0475
vn 0.0639 0.9949 -0.0778
vn -0.0964 0.9949 0.0292
vn 0.0778 0.9949 -0.0639
vn -0.1002 0.9949 0.0099
vn 0.0888 0.9949 -0.0475
vn -0.1002 0.9949 -0.0099
vn 0.0964 0.9949 -0.0292
vn -0.0964 0.9949 -0.0292
vn 0.1002 0.9949 -0.0099
vn 0.4092 -0.4964 -0.7656
vn -0.7656 -0.4964 0.4092
vn 0.5507 -0.4964 -0.6710
vn -0.8307 -0.4964 0.2520
vn 0.6710 -0.4964 -0.5507
vn -0.8639 -0.4964 0.0851
vn 0.7656 -0.4964 -0.4092
vn -0.8639 -0.4964 -0.0851
vn 0.8307 -0.4964 -0.2520
vn -0.8307 -0.4964 -0.2520
vn 0.8639 -0.4964 -0.0851
vn -0.7656 -0.4964 -0.4092
vn 0.8639 -0.4964 0.0851
vn -0.6710 -0.4964 -0.5507
vn 0.8307 -0.4964 0.2520
vn -0.5507 -0.4964 -0.6710
vn 0.7656 -0.4964 0.4092
vn -0.4092 -0.4964 -0.7656
vn -0.0851 -0.4964 0.8639
vn 0.6710 -0.4964 0.5507
vn -0.2520 -0.4964 -0.8307
vn -0.2520 -0.4964 0.8307
vn 0.5507 -0.4964 0.6710
vn -0.0851 -0.4964 -0.8639
vn -0.4092 -0.4964 0.7656
vn 0.4092 -0.4964 0.7656
vn 0.0851 -0.4964 -0.8639
vn -0.5507 -0.4964 0.6710
vn 0.2520 -0.4964 0.8307
vn 0.2520 -0.4964 -0.8307
vn -0.6710 -0.4964 0.5507
vn 0.0851 -0.4964 0.8639
vn 0.4714 -0.0010 -0.8819
vn 0.6344 -0.0010 -0.7730
vn 0.7730 -0.0010 -0.6344
vn 0.8819 -0.0010 -0.4714
vn 0.9569 -0.0010 -0.2903
vn 0.9952 -0.0010 -0.0980
vn 0.9952 -0.0010 0.0980
vn 0.9569 -0.0010 0.2903
vn 0.8819 -0.0010 0.4714
vn 0.2903 -0.0010 -0.9569
vn 0.0980 -0.0010 -0.9952
vn -0.0980 -0.0010 -0.9952
vn -0.2903 -0.0010 -0.9569
vn -0.4714 -0.0010 -0.8819
vn -0.6344 -0.0010 -0.7730
vn -0.7730 -0.0010 -0.6344
vn -0.8819 -0.0010 -0.4714
vn -0.9569 -0.0010 -0.2903
vn -0.9952 -0.0010 -0.0980
vn -0.9952 -0.0010 0.0980
vn -0.9569 -0.0010 0.2903
vn -0.8819 -0.0010 0.4714
vn -0.7730 -0.0010 0.6344
vn -0.6344 -0.0010 0.7730
vn -0.4714 -0.0010 0.8819
vn -0.2903 -0.0010 0.9569
vn -0.0980 -0.0010 0.9952
vn 0.0980 -0.0010 0.9952
vn 0.2903 -0.0010 0.9569
vn 0.4714 -0.0010 0.8819
vn 0.7730 -0.0010 0.6344
vn 0.6344 -0.0010 0.7730
usemtl None
s off
f 1/1/1 2/2/1 4/3/1 3/4/1
f 3/4/2 4/3/2 6/5/2 5/6/2
f 5/6/3 6/5/3 8/7/3 7/8/3
f 7/8/4 8/7/4 10/9/4 9/10/4
f 9/10/5 10/9/5 12/11/5 11/12/5
f 11/12/6 12/11/6 14/13/6 13/14/6
f 13/14/7 14/13/7 16/15/7 15/16/7
f 15/16/8 16/15/8 18/17/8 17/18/8
f 17/18/9 18/17/9 20/19/9 19/20/9
f 19/20/10 20/19/10 22/21/10 21/22/10
f 21/22/11 22/21/11 24/23/11 23/24/11
f 23/24/12 24/23/12 26/25/12 25/26/12
f 25/26/13 26/25/13 28/27/13 27/28/13
f 27/28/14 28/27/14 30/29/14 29/30/14
f 29/30/15 30/29/15 32/31/15 31/32/15
f 31/32/16 32/31/16 34/33/16 33/34/16
f 33/34/17 34/33/17 36/35/17 35/36/17
f 35/36/18 36/35/18 38/37/18 37/38/18
f 37/38/19 38/37/19 40/39/19 39/40/19
f 39/40/20 40/39/20 42/41/20 41/42/20
f 41/42/21 42/41/21 44/43/21 43/44/21
f 43/44/22 44/43/22 46/45/22 45/46/22
f 45/46/23 46/45/23 48/47/23 47/48/23
f 47/48/24 48/47/24 50/49/24 49/50/24
f 49/50/25 50/49/25 52/51/25 51/52/25
f 51/52/26 52/51/26 54/53/26 53/54/26
f 53/54/27 54/53/27 56/55/27 55/56/27
f 55/56/28 56/55/28 58/57/28 57/58/28
f 57/58/29 58/57/29 60/59/29 59/60/29
f 59/60/30 60/59/30 62/61/30 61/62/30
f 20/19/31 18/17/31 73/63/31 74/64/31
f 61/62/32 62/61/32 64/65/32 63/66/32
f 63/66/33 64/65/33 2/67/33 1/68/33
f 57/58/34 59/60/34 222/69/34 221/70/34
f 76/71/35 75/72/35 107/73/35 108/74/35
f 38/37/31 36/35/31 82/75/31 83/76/31
f 56/55/31 54/53/31 91/77/31 92/78/31
f 12/11/31 10/9/31 69/79/31 70/80/31
f 30/29/31 28/27/31 78/81/31 79/82/31
f 48/47/31 46/45/31 87/83/31 88/84/31
f 4/3/31 2/2/31 66/85/31 65/86/31
f 2/67/31 64/65/31 96/87/31 66/88/31
f 22/21/31 20/19/31 74/64/31 75/72/31
f 40/39/31 38/37/31 83/76/31 84/89/31
f 58/57/31 56/55/31 92/78/31 93/90/31
f 14/13/31 12/11/31 70/80/31 71/91/31
f 32/31/31 30/29/31 79/82/31 80/92/31
f 50/49/31 48/47/31 88/84/31 89/93/31
f 6/5/31 4/3/31 65/86/31 67/94/31
f 24/23/31 22/21/31 75/72/31 76/71/31
f 42/41/31 40/39/31 84/89/31 85/95/31
f 60/59/31 58/57/31 93/90/31 94/96/31
f 16/15/31 14/13/31 71/91/31 72/97/31
f 34/33/31 32/31/31 80/92/31 81/98/31
f 52/51/31 50/49/31 89/93/31 90/99/31
f 8/7/31 6/5/31 67/94/31 68/100/31
f 26/25/31 24/23/31 76/71/31 77/101/31
f 44/43/31 42/41/31 85/95/31 86/102/31
f 62/61/31 60/59/31 94/96/31 95/103/31
f 18/17/31 16/15/31 72/97/31 73/63/31
f 36/35/31 34/33/31 81/98/31 82/75/31
f 54/53/31 52/51/31 90/99/31 91/77/31
f 10/9/31 8/7/31 68/100/31 69/79/31
f 28/27/31 26/25/31 77/101/31 78/81/31
f 46/45/31 44/43/31 86/102/31 87/83/31
f 64/65/31 62/61/31 95/103/31 96/87/31
f 124/104/31 123/105/31 155/106/31 156/107/31
f 90/99/36 89/93/36 121/108/36 122/109/36
f 77/101/37 76/71/37 108/74/37 109/110/37
f 91/77/38 90/99/38 122/109/38 123/105/38
f 78/81/39 77/101/39 109/110/39 110/111/39
f 92/78/40 91/77/40 123/105/40 124/104/40
f 79/82/41 78/81/41 110/111/41 111/112/41
f 65/86/42 66/85/42 98/113/42 97/114/42
f 93/90/43 92/78/43 124/104/43 125/115/43
f 80/92/44 79/82/44 111/112/44 112/116/44
f 67/94/45 65/86/45 97/114/45 99/117/45
f 94/96/46 93/90/46 125/115/46 126/118/46
f 81/98/47 80/92/47 112/116/47 113/119/47
f 68/100/48 67/94/48 99/117/48 100/120/48
f 95/103/49 94/96/49 126/118/49 127/121/49
f 82/75/50 81/98/50 113/119/50 114/122/50
f 69/79/51 68/100/51 100/120/51 101/123/51
f 96/87/52 95/103/52 127/121/52 128/124/52
f 83/76/53 82/75/53 114/122/53 115/125/53
f 70/80/54 69/79/54 101/123/54 102/126/54
f 66/88/55 96/87/55 128/124/55 98/127/55
f 84/89/56 83/76/56 115/125/56 116/128/56
f 71/91/57 70/80/57 102/126/57 103/129/57
f 85/95/58 84/89/58 116/128/58 117/130/58
f 72/97/59 71/91/59 103/129/59 104/131/59
f 86/102/60 85/95/60 117/130/60 118/132/60
f 73/63/61 72/97/61 104/131/61 105/133/61
f 87/83/62 86/102/62 118/132/62 119/134/62
f 74/64/63 73/63/63 105/133/63 106/135/63
f 88/84/64 87/83/64 119/134/64 120/136/64
f 75/72/65 74/64/65 106/135/65 107/73/65
f 89/93/66 88/84/66 120/136/66 121/108/66
f 148/137/67 147/138/67 179/139/67 180/140/67
f 111/112/31 110/111/31 142/141/31 143/142/31
f 97/114/31 98/113/31 130/143/31 129/144/31
f 125/115/31 124/104/31 156/107/31 157/145/31
f 112/116/31 111/112/31 143/142/31 144/146/31
f 99/117/31 97/114/31 129/144/31 131/147/31
f 126/118/31 125/115/31 157/145/31 158/148/31
f 113/119/31 112/116/31 144/146/31 145/149/31
f 100/120/31 99/117/31 131/147/31 132/150/31
f 127/121/31 126/118/31 158/148/31 159/151/31
f 114/122/31 113/119/31 145/149/31 146/152/31
f 101/123/31 100/120/31 132/150/31 133/153/31
f 128/124/31 127/121/31 159/151/31 160/154/31
f 115/125/31 114/122/31 146/152/31 147/138/31
f 102/126/31 101/123/31 133/153/31 134/155/31
f 98/127/31 128/124/31 160/154/31 130/156/31
f 116/128/31 115/125/31 147/138/31 148/137/31
f 103/129/31 102/126/31 134/155/31 135/157/31
f 117/130/31 116/128/31 148/137/31 149/158/31
f 104/131/31 103/129/31 135/157/31 136/159/31
f 118/132/31 117/130/31 149/158/31 150/160/31
f 105/133/31 104/131/31 136/159/31 137/161/31
f 119/134/31 118/132/31 150/160/31 151/162/31
f 106/135/31 105/133/31 137/161/31 138/163/31
f 120/136/31 119/134/31 151/162/31 152/164/31
f 107/73/31 106/135/31 138/163/31 139/165/31
f 121/108/31 120/136/31 152/164/31 153/166/31
f 108/74/31 107/73/31 139/165/31 140/167/31
f 122/109/31 121/108/31 153/166/31 154/168/31
f 109/110/31 108/74/31 140/167/31 141/169/31
f 123/105/31 122/109/31 154/168/31 155/106/31
f 110/111/31 109/110/31 141/169/31 142/141/31
f 135/157/68 134/155/68 166/170/68 167/171/68
f 149/158/69 148/137/69 180/140/69 181/172/69
f 136/159/70 135/157/70 167/171/70 168/173/70
f 150/160/71 149/158/71 181/172/71 182/174/71
f 137/161/72 136/159/72 168/173/72 169/175/72
f 151/162/73 150/160/73 182/174/73 183/176/73
f 138/163/74 137/161/74 169/175/74 170/177/74
f 152/164/75 151/162/75 183/176/75 184/178/75
f 139/165/76 138/163/76 170/177/76 171/179/76
f 153/166/77 152/164/77 184/178/77 185/180/77
f 140/167/78 139/165/78 171/179/78 172/181/78
f 154/168/79 153/166/79 185/180/79 186/182/79
f 141/169/80 140/167/80 172/181/80 173/183/80
f 155/106/81 154/168/81 186/182/81 187/184/81
f 142/141/82 141/169/82 173/183/82 174/185/82
f 156/107/83 155/106/83 187/184/83 188/186/83
f 143/142/84 142/141/84 174/185/84 175/187/84
f 129/144/85 130/143/85 162/188/85 161/189/85
f 157/145/86 156/107/86 188/186/86 189/190/86
f 144/146/87 143/142/87 175/187/87 176/191/87
f 131/147/88 129/144/88 161/189/88 163/192/88
f 158/148/89 157/145/89 189/190/89 190/193/89
f 145/149/90 144/146/90 176/191/90 177/194/90
f 132/150/91 131/147/91 163/192/91 164/195/91
f 159/151/92 158/148/92 190/193/92 191/196/92
f 146/152/93 145/149/93 177/194/93 178/197/93
f 133/153/94 132/150/94 164/195/94 165/198/94
f 160/154/95 159/151/95 191/196/95 192/199/95
f 147/138/96 146/152/96 178/197/96 179/139/96
f 134/155/97 133/153/97 165/198/97 166/170/97
f 130/156/98 160/154/98 192/199/98 162/200/98
f 13/14/34 15/16/34 200/201/34 199/202/34
f 31/32/34 33/34/34 209/203/34 208/204/34
f 49/50/34 51/52/34 218/205/34 217/206/34
f 5/6/34 7/8/34 196/207/34 195/208/34
f 23/24/34 25/26/34 205/209/34 204/210/34
f 41/42/34 43/44/34 214/211/34 213/212/34
f 59/60/34 61/62/34 223/213/34 222/69/34
f 15/16/34 17/18/34 201/214/34 200/201/34
f 33/34/34 35/36/34 210/215/34 209/203/34
f 51/52/34 53/54/34 219/216/34 218/205/34
f 7/8/34 9/10/34 197/217/34 196/207/34
f 25/26/34 27/28/34 206/218/34 205/209/34
f 43/44/34 45/46/34 215/219/34 214/211/34
f 61/62/34 63/66/34 224/220/34 223/213/34
f 17/18/34 19/20/34 202/221/34 201/214/34
f 35/36/34 37/38/34 211/222/34 210/215/34
f 53/54/34 55/56/34 220/223/34 219/216/34
f 9/10/34 11/12/34 198/224/34 197/217/34
f 27/28/34 29/30/34 207/225/34 206/218/34
f 45/46/34 47/48/34 216/226/34 215/219/34
f 1/1/34 3/4/34 194/227/34 193/228/34
f 63/66/34 1/68/34 193/229/34 224/220/34
f 19/20/34 21/22/34 203/230/34 202/221/34
f 37/38/34 39/40/34 212/231/34 211/222/34
f 55/56/34 57/58/34 221/70/34 220/223/34
f 11/12/34 13/14/34 199/202/34 198/224/34
f 29/30/34 31/32/34 208/204/34 207/225/34
f 47/48/34 49/50/34 217/206/34 216/226/34
f 3/4/34 5/6/34 195/208/34 194/227/34
f 21/22/34 23/24/34 204/210/34 203/230/34
f 39/40/34 41/42/34 213/212/34 212/231/34
f 180/140/99 179/139/99 211/222/99 212/231/99
f 181/172/100 180/140/100 212/231/100 213/212/100
f 182/174/101 181/172/101 213/212/101 214/211/101
f 183/176/102 182/174/102 214/211/102 215/219/102
f 184/178/103 183/176/103 215/219/103 216/226/103
f 185/180/104 184/178/104 216/226/104 217/206/104
f 186/182/105 185/180/105 217/206/105 218/205/105
f 187/184/106 186/182/106 218/205/106 219/216/106
f 188/186/107 187/184/107 219/216/107 220/223/107
f 179/139/108 178/197/108 210/215/108 211/222/108
f 178/197/109 177/194/109 209/203/109 210/215/109
f 177/194/110 176/191/110 208/204/110 209/203/110
f 176/191/111 175/187/111 207/225/111 208/204/111
f 175/187/112 174/185/112 206/218/112 207/225/112
f 174/185/113 173/183/113 205/209/113 206/218/113
f 173/183/114 172/181/114 204/210/114 205/209/114
f 172/181/115 171/179/115 203/230/115 204/210/115
f 171/179/116 170/177/116 202/221/116 203/230/116
f 170/177/117 169/175/117 201/214/117 202/221/117
f 169/175/118 168/173/118 200/201/118 201/214/118
f 168/173/119 167/171/119 199/202/119 200/201/119
f 167/171/120 166/170/120 198/224/120 199/202/120
f 166/170/121 165/198/121 197/217/121 198/224/121
f 165/198/122 164/195/122 196/207/122 197/217/122
f 164/195/123 163/192/123 195/208/123 196/207/123
f 163/192/124 161/189/124 194/227/124 195/208/124
f 161/189/125 162/188/125 193/228/125 194/227/125
f 162/188/126 192/199/126 224/220/126 193/228/126
f 192/199/127 191/196/127 223/213/127 224/220/127
f 191/196/128 190/193/128 222/69/128 223/213/128
f 189/190/129 188/186/129 220/223/129 221/70/129
f 190/193/130 189/190/130 221/70/130 222/69/130
